<svg xmlns="http://www.w3.org/2000/svg" width="56.917" height="56.917" viewBox="0 0 56.917 56.917"><defs><style>.a{fill:none;}.b{fill:#4c0c43;}</style></defs><path class="a" d="M0,0H56.917V56.917H0Z"/><path class="b" d="M43.59,1,31.76,12.807V38.782L43.59,28.156ZM1,12.807V47.4a1.271,1.271,0,0,0,1.183,1.181c.237,0,.355-.118.592-.118a28.928,28.928,0,0,1,11.239-2.6c4.614,0,9.583.945,13.014,3.542v-36.6c-3.431-2.6-8.4-3.542-13.014-3.542S4.431,10.209,1,12.807ZM53.055,44.686V12.807a16.151,16.151,0,0,0-4.732-2.361V42.325a27.546,27.546,0,0,0-8.281-1.181,28.544,28.544,0,0,0-13.014,3.542v4.723a28.545,28.545,0,0,1,13.014-3.542A24.123,24.123,0,0,1,51.28,48.346a1.068,1.068,0,0,0,.592.118,1.271,1.271,0,0,0,1.183-1.181v-2.6Z" transform="translate(1.431 1.431)"/></svg>