<svg xmlns="http://www.w3.org/2000/svg" width="44.822" height="44.822" viewBox="0 0 44.822 44.822"><defs><style>.a{fill:none;}.b{fill:#f2f5f7;}</style></defs><path class="a" d="M0,0H44.822V44.822H0Z"/><path class="b" d="M31.014,28.3a5.438,5.438,0,0,0-3.66,1.438l-13.316-7.75a6.114,6.114,0,0,0,.168-1.307,6.114,6.114,0,0,0-.168-1.307L27.2,11.693A5.59,5.59,0,1,0,25.411,7.6a6.113,6.113,0,0,0,.168,1.307L12.413,16.586a5.6,5.6,0,1,0,0,8.18l13.3,7.769a5.269,5.269,0,0,0-.149,1.214A5.453,5.453,0,1,0,31.014,28.3Z" transform="translate(2.603 1.735)"/></svg>